<svg width="138" height="18" viewBox="0 0 138 18" fill="none" xmlns="http://www.w3.org/2000/svg">
<path d="M111.496 0.0264855C116.33 0.0877341 120.23 4.02615 120.23 8.87459C120.23 13.7609 116.268 17.7216 111.382 17.7217H92.7246C87.8381 17.7217 83.8767 13.761 83.8765 8.87459C83.8765 4.02615 87.7759 0.0877335 92.6098 0.0264855H111.496ZM19.1127 0.0117713C23.7877 0.248717 27.5056 4.11417 27.5056 8.8481L27.4939 9.30326C27.2569 13.9783 23.3914 17.6962 18.6575 17.6962L18.2024 17.6844C13.6781 17.4551 10.0505 13.8275 9.8212 9.30326L9.80943 8.8481C9.80944 3.96156 13.771 0.000115971 18.6575 0L19.1127 0.0117713ZM4.21021 14.2796H9.72507V17.5294H0V0.246217H4.21021V14.2796ZM33.6395 7.8289L39.4005 0.246217H44.3494L37.6525 8.71568L44.5956 17.5294H39.4496L33.6395 9.89771V17.5294H29.4293V0.246217H33.6395V7.8289ZM63.3512 17.5294H58.8948L57.8609 14.4768H51.4102L50.3753 17.5294H45.9689L52.2224 0.246217H57.0968L63.3512 17.5294ZM75.1873 3.6187H70.6073V17.5294H66.3971V3.6187H61.818V0.246217H75.1873V3.6187ZM81.5105 17.5294H77.3002V0.246217H81.5105V17.5294ZM133.79 10.9561V0.246217H138V17.5294H133.79L126.749 6.86954V17.5294H122.538V0.246217H126.749L133.79 10.9561ZM92.7246 4.06503C90.0688 4.06503 87.915 6.21881 87.915 8.87459C87.9153 11.5302 90.069 13.6832 92.7246 13.6832H111.382C114.038 13.6831 116.19 11.5301 116.191 8.87459C116.191 6.21889 114.038 4.06514 111.382 4.06503H92.7246ZM18.6575 4.03952C16.0019 4.03964 13.849 6.19241 13.8489 8.8481C13.849 11.5038 16.0019 13.6566 18.6575 13.6567C21.3132 13.6566 23.4661 11.5038 23.4661 8.8481C23.4661 6.19236 21.3133 4.03957 18.6575 4.03952ZM52.5177 11.2269H56.777L54.6356 4.89981L52.5177 11.2269Z" fill="black"/>
</svg>
